<svg width="1430" height="250" viewBox="0 0 1430 250" fill="none" xmlns="http://www.w3.org/2000/svg">
<path d="M1430 26.0372C1382.24 10.0122 1314.32 0 1238.97 0C1196.47 0 1156.33 3.18561 1120.85 8.83906C1084.11 14.6914 1044.52 14.6914 1007.79 8.83906C972.297 3.18561 932.16 0 889.658 0C847.156 0 807.019 3.18561 771.53 8.83906C734.793 14.6914 695.207 14.6914 658.47 8.83906C622.981 3.18561 582.845 0 540.342 0C497.84 0 457.703 3.18561 422.215 8.83906C385.477 14.6914 345.892 14.6914 309.155 8.83906C273.666 3.18561 233.529 0 191.027 0C115.677 0 47.7629 10.0122 0 26.0372V250H1430V26.0372Z" fill="#B2E3FF"/>
</svg>
