<svg width="82" height="33" viewBox="0 0 82 33" fill="none" xmlns="http://www.w3.org/2000/svg">
<path opacity="0.5" d="M18.3459 14.7023C18.3459 14.7023 14.8883 14.6091 12.6461 16.6667C10.4038 18.7244 0.31065 29.1061 0.31065 29.1061C0.31065 29.1061 -0.0630589 29.8542 1.89968 30.0417C3.86242 30.2292 35.1352 28.1213 35.1352 28.1213L36.4344 28.2074C36.4334 28.2064 33.2973 14.7956 18.3459 14.7023Z" fill="url(#paint0_linear_2607_2)"/>
<path d="M80.0637 17.7253C80.0637 17.7253 80.0401 17.7673 79.9981 17.8524C79.3767 19.0687 74.5051 28.6132 73.9768 29.8634C73.8499 30.1606 73.6215 30.3614 73.3441 30.4967C73.2202 30.5582 73.0861 30.6043 72.9427 30.6391C72.6264 30.7201 72.2834 30.7467 71.9629 30.7437H71.9588C71.6383 30.7396 71.3414 30.7088 71.1254 30.674C71.0906 30.6699 71.0599 30.6658 71.0291 30.6627C70.8592 30.6391 70.7588 30.6166 70.7588 30.6166L38.4551 28.0107L39.0612 27.8682C46.1443 26.4633 68.3251 29.9495 70.5121 30.1309C70.6278 30.1421 70.7394 30.1503 70.8479 30.1544C70.8786 30.1544 70.9063 30.1585 70.937 30.1585C70.9759 30.1585 71.0138 30.1626 71.0486 30.1626H71.1336C71.2912 30.1667 71.4346 30.1626 71.5615 30.1544C72.4646 30.1001 72.7154 29.8296 72.784 29.6953C72.8076 29.6451 72.8076 29.6144 72.8076 29.6144L79.7555 17.1238C79.8364 17.1279 79.9173 17.1279 79.9951 17.135C80.3135 17.2345 80.0637 17.7253 80.0637 17.7253Z" fill="#94A0AC"/>
<path opacity="0.5" d="M80.9282 19.1303C80.7736 19.6048 80.45 20.0454 80.4111 20.0998C80.407 20.0998 80.407 20.1039 80.407 20.1039C80.4029 20.1121 80.3958 20.1233 80.3958 20.1305C80.1716 20.6593 76.5379 29.1421 75.7362 30.4784C75.169 31.4283 74.8915 32.0155 74.3745 32.3157C74.139 32.451 73.8503 32.5238 73.4643 32.5473C73.3946 32.5514 73.2216 32.5432 72.9513 32.532C72.6616 32.5166 72.2571 32.4899 71.7595 32.4551C64.484 31.9376 39.5407 29.4936 38.8118 29.5551C38.0746 29.6166 38.3715 28.9146 38.4411 28.764C38.4524 28.7445 38.4565 28.7332 38.4565 28.7332L70.7592 31.3391C70.7592 31.3391 70.8596 31.3627 71.0295 31.3853C71.2496 31.4201 71.5885 31.4621 71.9592 31.4662H71.9633C72.4261 31.4703 72.939 31.416 73.3445 31.2193L72.9431 30.6403C73.0854 30.6054 73.2206 30.5593 73.3445 30.4978C73.6219 30.3626 73.8503 30.1617 73.9772 29.8645C74.5055 28.6133 79.3781 19.0689 79.9985 17.8535C81.0777 17.915 81.1248 18.5473 80.9282 19.1303Z" fill="url(#paint1_linear_2607_2)"/>
<path d="M18.3459 13.3539C18.3459 13.3539 14.8883 13.2607 12.6461 15.3183C10.4028 17.375 0.31065 27.7567 0.31065 27.7567C0.31065 27.7567 -0.0630589 28.5048 1.89968 28.6923C3.86242 28.8798 34.2854 27.6993 34.2854 27.6993L36.4344 26.858C36.4334 26.858 33.2973 13.4472 18.3459 13.3539Z" fill="url(#paint2_linear_2607_2)"/>
<path d="M81.3564 18.3309C81.3564 18.3309 81.1987 18.6281 80.9284 19.1302C80.7861 19.4008 80.608 19.7246 80.4114 20.0996C80.4073 20.0996 80.4073 20.1037 80.4073 20.1037C80.4032 20.1119 80.396 20.1232 80.396 20.1304C78.8418 23.0263 75.8982 28.4974 75.2921 29.5006C74.7249 30.4506 74.4515 31.0378 73.9304 31.338C73.6949 31.4733 73.4092 31.546 73.0202 31.5696C72.9505 31.5737 72.7775 31.5655 72.5072 31.5542C72.2175 31.5348 71.813 31.5122 71.3154 31.4733C64.0399 30.9599 39.54 28.771 38.811 28.8325C38.6339 28.8479 38.5141 28.8171 38.4404 28.7628C38.166 28.5579 38.4557 28.0096 38.4557 28.0096L70.7595 30.6156C70.7595 30.6156 70.8598 30.6391 71.0298 30.6617C71.0605 30.6658 71.0912 30.6699 71.126 30.673C71.3421 30.7078 71.639 30.7385 71.9594 30.7426H71.9635C72.284 30.7467 72.627 30.7191 72.9434 30.6381C73.0857 30.6033 73.2208 30.5572 73.3447 30.4957C73.6222 30.3604 73.8505 30.1596 73.9775 29.8624C74.5058 28.6112 79.3783 19.0667 79.9988 17.8514C80.0408 17.7663 80.0643 17.7243 80.0643 17.7243C80.0643 17.7243 80.3152 17.2334 79.9947 17.134C82.027 17.2427 81.3564 18.3309 81.3564 18.3309Z" fill="url(#paint3_linear_2607_2)"/>
<path d="M38.4554 25.2849V26.2728C38.0428 26.5402 37.6557 26.8026 37.4766 26.9358C37.4878 26.9081 37.5011 26.8815 37.5165 26.8569C37.5984 26.7196 37.9445 26.1375 38.4554 25.2849Z" fill="url(#paint4_linear_2607_2)"/>
<path d="M37.5165 26.8568C37.5011 26.8814 37.4878 26.908 37.4766 26.9357C37.6557 26.8025 38.0427 26.5401 38.4554 26.2727V27.3948C38.4062 27.4901 38.3315 27.6325 38.2424 27.777C38.226 27.8047 38.2086 27.8323 38.1912 27.86C38.0366 28.0998 37.8533 28.3201 37.7069 28.3109C37.3905 28.2894 35.1985 28.3949 35.135 28.1203C35.0828 27.8918 35.3346 27.4245 35.4186 27.2749L35.5947 27.281L36.1046 27.0238L36.1814 26.9849L36.4363 26.8568L37.5615 24.9907L38.4574 25.2787V25.2848C37.9445 26.1374 37.5984 26.7195 37.5165 26.8568Z" fill="#94A0AC"/>
<path d="M38.4556 27.396V28.0129L38.1904 27.8612C38.301 27.6901 38.3972 27.5087 38.4556 27.396Z" fill="url(#paint5_linear_2607_2)"/>
<path d="M70.2477 28.2074C70.2385 28.2064 70.2303 28.2064 70.2211 28.2054L70.1924 28.1265L70.2477 28.2074Z" fill="url(#paint6_linear_2607_2)"/>
<path d="M36.4337 26.8569C30.4001 19.2738 8.45065 25.533 4.90912 26.0115C4.78933 26.031 4.69718 26.0423 4.63165 26.0464C3.25866 26.1857 3.06515 26.0699 3.0887 25.9726C3.11532 25.9419 3.14296 25.9111 3.16958 25.8804C6.17461 22.5981 13.1604 14.9269 14.4034 13.564C14.7617 13.6449 15.1283 13.7259 15.4989 13.8109C16.1511 13.9616 16.8217 14.1235 17.5005 14.3018C18.2254 14.4914 18.9585 14.6953 19.6957 14.9197C21.0615 15.3286 22.4427 15.8041 23.8044 16.3564C27.948 18.04 31.9093 20.4533 34.6717 24.0625C34.73 24.1363 34.7874 24.2131 34.8457 24.29C35.4385 25.0882 35.9709 25.9419 36.4337 26.8569Z" fill="url(#paint7_linear_2607_2)"/>
<path d="M36.4346 26.8569L36.1797 26.985L36.1029 27.0239L35.593 27.2811L35.466 27.236L35.4456 27.2289L33.8668 26.6642L32.8204 26.5853C31.5436 26.0514 27.9571 26.6796 23.1255 26.8231C15.0472 27.0628 2.85819 27.8857 2.44148 27.9083C2.43124 27.9093 2.42612 27.9093 2.42612 27.9093C2.42612 27.9093 1.32445 27.8406 1.80669 27.358C1.86709 27.2975 2.1077 27.0393 2.48448 26.6294C2.49574 26.6171 2.507 26.6048 2.52134 26.5904C2.53158 26.5792 2.53977 26.5689 2.55001 26.5576C2.59096 26.5126 2.63499 26.4664 2.67901 26.4173L2.73328 26.3599C2.84385 26.2389 2.9616 26.1098 3.08856 25.9715C3.06501 26.0668 3.26056 26.1836 4.63151 26.0473C4.69806 26.0412 4.79123 26.0299 4.90898 26.0125C8.45153 25.5339 30.3938 19.2748 36.4336 26.8548C36.4346 26.8558 36.4346 26.8558 36.4346 26.8569Z" fill="url(#paint8_linear_2607_2)"/>
<path d="M77.8286 14.4954L72.097 27.3303C72.097 27.3303 71.926 27.6603 71.5462 27.9206L71.0117 27.153C71.668 27.0229 71.7745 26.6294 71.7745 26.6294L76.9522 14.7342L77.547 13.3682C77.547 13.3671 78.063 13.8365 77.8286 14.4954Z" fill="url(#paint9_linear_2607_2)"/>
<path d="M78.9084 16.0909L72.2062 28.8643L71.5479 27.9205C71.9277 27.6602 72.0987 27.3303 72.0987 27.3303L77.8302 14.4954C77.8292 14.4954 78.5326 15.1051 78.9084 16.0909Z" fill="url(#paint10_linear_2607_2)"/>
<path d="M79.7551 17.1227L72.8071 29.6133C72.8071 29.6133 72.8072 29.6441 72.7836 29.6943L72.2123 28.8714L72.2041 28.8632L78.9053 16.0908C78.9063 16.0918 79.8011 16.513 79.7551 17.1227Z" fill="url(#paint11_linear_2607_2)"/>
<path d="M38.4994 26.2441C38.4841 26.2554 38.4707 26.2657 38.4554 26.2769H38.4492C38.4513 26.2759 38.4533 26.2749 38.4554 26.2728C38.4687 26.2636 38.4841 26.2544 38.4994 26.2441Z" fill="url(#paint12_linear_2607_2)"/>
<path d="M71.1255 30.6751V30.6792C71.0907 30.6751 71.06 30.671 71.0293 30.6638C71.06 30.6669 71.0907 30.671 71.1255 30.6751Z" fill="#9C9BAE"/>
<path d="M39.0592 27.8672L38.4541 28.0127C38.6384 27.9584 38.8401 27.9113 39.0592 27.8672Z" fill="url(#paint13_linear_2607_2)"/>
<path d="M38.4994 26.2441C38.4841 26.2554 38.4707 26.2657 38.4554 26.2769H38.4492C38.4513 26.2759 38.4533 26.2749 38.4554 26.2728C38.4687 26.2636 38.4841 26.2544 38.4994 26.2441Z" fill="url(#paint14_linear_2607_2)"/>
<path d="M70.2477 28.2074C70.2385 28.2064 70.2303 28.2064 70.2211 28.2054L70.1924 28.1265L70.2477 28.2074Z" fill="url(#paint15_linear_2607_2)"/>
<path d="M77.4543 9.3767L76.7509 11.2909L75.728 13.8968L75.2141 15.2065L71.6889 24.1863C71.6889 24.1863 71.35 24.753 69.6914 24.6003C69.6729 24.5993 69.6514 24.5962 69.6258 24.5931C69.6166 24.5931 69.6074 24.5921 69.5972 24.5911C69.4876 24.5788 69.332 24.5562 69.1344 24.5275C69.1129 24.5255 69.0904 24.5214 69.0668 24.5173C69.0023 24.5081 68.9337 24.4989 68.861 24.4876C68.8559 24.4866 68.8498 24.4866 68.8446 24.4855C68.817 24.4814 68.7883 24.4763 68.7597 24.4732C68.7085 24.4661 68.6542 24.4568 68.5989 24.4497C68.4054 24.42 68.1914 24.3882 67.957 24.3533C67.9232 24.3482 67.8894 24.3431 67.8556 24.338C67.7184 24.3165 67.5751 24.2949 67.4235 24.2724C67.3856 24.2673 67.3467 24.2611 67.3089 24.256C67.1932 24.2386 67.0754 24.2212 66.9536 24.2037C66.885 24.1935 66.8133 24.1832 66.7416 24.172C66.5205 24.1402 66.2891 24.1064 66.0464 24.0726C65.9553 24.0603 65.8632 24.048 65.769 24.0336C65.5406 24.0008 65.3052 23.968 65.0605 23.9352C64.8864 23.9117 64.7093 23.8871 64.527 23.8635C64.1257 23.8102 63.7079 23.7569 63.2728 23.7026C63.1602 23.6873 63.0455 23.6739 62.9298 23.6596C62.2326 23.5745 61.4985 23.4885 60.7316 23.4075C60.5944 23.3921 60.4582 23.3788 60.32 23.3634C58.732 23.1974 60.1552 23.2753 58.3849 23.1646C58.1361 23.1482 57.8873 23.1329 57.6354 23.1206C57.3846 23.1052 57.1327 23.0929 56.8798 23.0816C56.7539 23.0755 56.628 23.0693 56.501 23.0642C56.2184 23.0509 55.9348 23.0386 55.6512 23.0304C55.5529 23.0263 55.4556 23.0232 55.3563 23.0201C55.1956 23.014 55.0338 23.0089 54.8731 23.0048C54.7277 23.0007 54.5823 22.9976 54.4349 22.9945C53.6649 22.9771 52.8919 22.971 52.1209 22.9771C51.9725 22.9771 51.824 22.9792 51.6756 22.9812C51.2783 22.9863 50.8831 22.9956 50.4889 23.0079C50.0824 23.0201 49.677 23.0365 49.2746 23.0581C49.1681 23.0632 49.0627 23.0693 48.9562 23.0755C48.9419 23.0755 48.9285 23.0765 48.9152 23.0775C48.776 23.0837 48.6367 23.0939 48.4985 23.1032C48.4596 23.1052 48.4197 23.1083 48.3808 23.1103C48.2026 23.1216 48.0235 23.1359 47.8463 23.1493C47.8187 23.1513 47.791 23.1534 47.7634 23.1554C47.1358 23.2056 46.5163 23.2661 45.9082 23.3399C45.8191 23.3501 45.731 23.3614 45.642 23.3727C45.6215 23.3747 45.602 23.3778 45.5816 23.3798C45.4495 23.3973 45.3194 23.4147 45.1884 23.4321C44.9283 23.469 44.6703 23.5079 44.4154 23.5489C44.3376 23.5612 44.2608 23.5745 44.184 23.5868C44.057 23.6084 43.9301 23.6309 43.8052 23.6534C43.7089 23.6709 43.6116 23.6883 43.5154 23.7078C43.3884 23.7313 43.2625 23.7559 43.1376 23.7815C42.9769 23.8143 42.8161 23.8481 42.6584 23.883C41.1063 24.2273 39.6841 24.6843 38.4545 25.2797L37.5586 24.9918L45.1239 12.455L45.9655 12.7635C45.9655 12.7635 50.3568 7.7781 59.7016 8.05786C69.0463 8.33966 77.0324 7.81909 77.0324 7.81909C77.0324 7.81909 78.0174 8.06196 77.4543 9.3767Z" fill="url(#paint16_linear_2607_2)"/>
<path d="M70.2477 28.2074C70.2385 28.2064 70.2303 28.2064 70.2211 28.2054L70.1924 28.1265L70.2477 28.2074Z" fill="url(#paint17_linear_2607_2)"/>
<path d="M71.5465 27.9195C71.2496 28.1234 70.8226 28.2823 70.2472 28.2075L70.1919 28.1255L70.2206 28.2044C39.8847 22.1697 37.7899 27.2811 37.7899 27.2811L37.4766 26.9357C37.5247 26.9009 37.5718 26.8394 37.6179 26.7687C38.482 26.076 42.1679 21.4247 69.8233 27.1202C70.3455 27.2145 70.7294 27.2073 71.011 27.152L71.5465 27.9195Z" fill="url(#paint18_linear_2607_2)"/>
<path d="M77.8773 12.4756C77.5486 13.3671 77.5486 13.3671 77.5486 13.3671L76.9537 14.7331L71.7761 26.6284C71.7761 26.6284 71.6696 27.0219 71.0133 27.152C70.7307 27.2073 70.3468 27.2145 69.8256 27.1202C59.1212 24.915 52.0074 24.2612 47.2588 24.3278C41.2989 24.4108 39.0638 25.6282 38.129 26.3425C37.8843 26.53 37.7297 26.6816 37.6191 26.7698C37.743 26.5751 37.8454 26.3086 37.8454 26.3086C37.8567 26.2963 37.869 26.281 37.8833 26.2636C38.0799 26.0115 38.4567 25.2788 38.4567 25.2788C39.6863 24.6834 41.1084 24.2264 42.6606 23.882C42.8183 23.8472 42.979 23.8134 43.1398 23.7806C43.2657 23.755 43.3906 23.7304 43.5176 23.7068C43.6138 23.6884 43.7111 23.6699 43.8073 23.6525C43.9333 23.63 44.0592 23.6074 44.1862 23.5859C44.263 23.5736 44.3397 23.5613 44.4176 23.548C44.6725 23.507 44.9305 23.4681 45.1906 23.4312C45.3206 23.4137 45.4517 23.3963 45.5837 23.3789C45.6042 23.3768 45.6237 23.3738 45.6441 23.3717C45.7332 23.3605 45.8213 23.3492 45.9103 23.3389C46.5185 23.2652 47.139 23.2047 47.7656 23.1545C47.7932 23.1524 47.8209 23.1504 47.8485 23.1483C48.0256 23.135 48.2048 23.1207 48.383 23.1094C48.4219 23.1073 48.4618 23.1043 48.5007 23.1022C48.6389 23.093 48.7782 23.0838 48.9174 23.0766C48.9307 23.0756 48.9451 23.0745 48.9584 23.0745C49.0649 23.0684 49.1703 23.0623 49.2768 23.0571C49.6792 23.0356 50.0846 23.0192 50.4911 23.0069C50.8853 22.9946 51.2805 22.9854 51.6777 22.9803C51.8262 22.9792 51.9747 22.9762 52.1231 22.9762C52.8931 22.97 53.6661 22.9762 54.437 22.9936C54.5834 22.9956 54.7299 22.9997 54.8753 23.0038C55.036 23.0079 55.1978 23.0131 55.3585 23.0192C55.4578 23.0213 55.5551 23.0254 55.6534 23.0295C55.937 23.0387 56.2206 23.05 56.5032 23.0633C56.6301 23.0684 56.7571 23.0745 56.882 23.0807C57.1339 23.092 57.3868 23.1043 57.6376 23.1196C57.8885 23.133 58.1383 23.1483 58.3871 23.1637C60.1573 23.2744 58.7342 23.1965 60.3232 23.3625C60.4614 23.3779 60.5976 23.3912 60.7348 23.4066C61.5017 23.4885 62.2358 23.5736 62.933 23.6587C63.0487 23.672 63.1624 23.6863 63.276 23.7017C63.7111 23.756 64.1289 23.8093 64.5302 23.8626C64.7125 23.8861 64.8886 23.9107 65.0637 23.9343C65.3084 23.9671 65.5439 23.9999 65.7722 24.0327C65.8664 24.047 65.9575 24.0593 66.0496 24.0716C66.2913 24.1054 66.5237 24.1393 66.7448 24.171C66.8165 24.1823 66.8882 24.1925 66.9568 24.2028C67.0786 24.2202 67.1964 24.2376 67.3121 24.2551C67.3499 24.2602 67.3888 24.2663 67.4257 24.2715C67.5762 24.294 67.7206 24.3155 67.8578 24.337C67.8916 24.3422 67.9254 24.3473 67.9591 24.3524C68.1936 24.3872 68.4086 24.419 68.6011 24.4487C68.6564 24.4559 68.7107 24.4651 68.7618 24.4723C68.7905 24.4764 68.8192 24.4815 68.8468 24.4846C68.8519 24.4856 68.8581 24.4856 68.8632 24.4866C68.9359 24.4979 69.0055 24.5082 69.069 24.5164C69.0926 24.5205 69.1151 24.5235 69.1366 24.5266C69.3352 24.5553 69.4908 24.5779 69.5994 24.5912C69.6096 24.5922 69.6198 24.5932 69.628 24.5932C69.6536 24.5973 69.6741 24.5994 69.6936 24.6004C71.3522 24.7521 71.6911 24.1864 71.6911 24.1864L75.2162 15.2066L75.7302 13.8969L76.7531 11.291L77.0551 11.3525L77.5046 11.4427C77.5025 11.4427 78.2059 11.5831 77.8773 12.4756Z" fill="url(#paint19_linear_2607_2)"/>
<path d="M72.7845 29.6944C72.7148 29.8297 72.464 30.1002 71.562 30.1535C71.435 30.1617 71.2917 30.1648 71.134 30.1617H71.049C71.0142 30.1617 70.9753 30.1576 70.9374 30.1576C70.9067 30.1576 70.879 30.1535 70.8483 30.1535C70.7398 30.1494 70.6282 30.1422 70.5125 30.1299C68.3255 29.9486 46.1437 26.4624 39.0616 27.8673C38.8415 27.9093 38.6377 27.9565 38.4555 28.0098L38.2507 27.7853H38.2466L38.2425 27.7771L38.2343 27.7659L37.791 27.2791C37.791 27.2791 39.8858 22.1677 70.2187 28.2014C70.2299 28.2055 70.2381 28.2055 70.2453 28.2055C70.8238 28.2793 71.2487 28.1204 71.5456 27.9155L72.1978 28.85L72.206 28.8613L72.2142 28.8695L72.7845 29.6944Z" fill="url(#paint20_linear_2607_2)"/>
<path d="M35.5937 27.2822L35.4176 27.276L35.3695 27.275L35.3367 27.274L2.42578 27.9103C2.42578 27.9103 2.4309 27.9103 2.44114 27.9093C2.84044 27.8724 14.6916 26.7852 23.1272 26.3209C34.9783 25.6702 33.9545 26.5361 35.3162 27.1479C35.3879 27.1807 35.4452 27.2073 35.4892 27.2278C35.5435 27.2545 35.5783 27.2729 35.5937 27.2822Z" fill="#94A0AC"/>
<path d="M38.4553 28.0129L38.401 28.7302L38.2956 28.8409C38.2956 28.8409 38.2956 28.8409 37.9945 28.9915C37.6945 29.1422 35.3909 28.7907 34.6393 28.6913C33.8878 28.5908 34.2841 27.7003 34.2841 27.7003L35.3366 27.273L35.4441 27.23C35.4431 27.232 35.439 27.2392 35.4328 27.2484C35.4287 27.2556 35.4236 27.2648 35.4165 27.2751C35.3325 27.4247 35.0806 27.892 35.1329 28.1205C35.1963 28.3951 37.3884 28.2896 37.7048 28.3111C37.8512 28.3203 38.0345 28.1 38.1891 27.8602C38.2065 27.8325 38.2239 27.8049 38.2403 27.7772L38.4553 28.0129Z" fill="url(#paint21_linear_2607_2)"/>
<path d="M45.1254 12.4551L37.5601 24.9918L36.4338 26.8569C36.3796 26.6909 36.3222 26.5249 36.2639 26.363C33.3449 18.3003 23.7851 14.4124 16.3519 12.5791C11.079 11.2746 6.87402 11.0041 6.87402 11.0041C7.15149 10.587 17.2631 2.59914 19.4808 0.849898C19.7552 0.633677 20.1053 0.533252 20.4565 0.579366C23.9551 1.01488 43.0889 3.79092 45.1254 12.4551Z" fill="url(#paint22_linear_2607_2)"/>
<path d="M36.4334 26.857C35.9706 25.9419 35.4382 25.0883 34.8443 24.289C34.786 24.2121 34.7286 24.1342 34.6703 24.0615C31.9079 20.4513 27.9466 18.038 23.803 16.3554C22.4413 15.8031 21.0601 15.3286 19.6943 14.9187C18.9571 14.6943 18.224 14.4904 17.4991 14.3008C16.8203 14.1235 16.1487 13.9606 15.4975 13.8099C15.1269 13.7249 14.7603 13.6439 14.402 13.563C12.8437 13.2228 11.3857 12.9451 10.0966 12.7022C7.87077 12.278 6.48242 12.0997 6.48242 12.0997C6.48242 12.0997 6.55921 11.4746 6.87251 11.0032C6.87251 11.0032 11.0775 11.2737 16.3504 12.5782C18.8691 13.2002 21.6355 14.0569 24.3006 15.2343C29.5008 17.5277 34.3344 21.0334 36.2634 26.362C36.3218 26.525 36.3801 26.691 36.4334 26.857Z" fill="url(#paint23_linear_2607_2)"/>
<path d="M25.4065 25.3608C17.2812 25.4868 3.21951 26.946 3.08128 26.9583C3.07924 26.9583 2.80689 26.9901 2.65638 26.8528C2.597 26.7975 2.55605 26.6642 2.5499 26.5577C2.53966 26.5689 2.53147 26.5792 2.52123 26.5905C2.50792 26.6038 2.49666 26.6171 2.48438 26.6294C2.48847 26.7462 2.52942 26.8405 2.60621 26.9081C2.78232 27.068 3.07821 27.0352 3.08948 27.0321C3.22667 27.0208 17.2863 25.5606 25.4086 25.4356C34.1912 25.3003 34.6141 26.695 35.4475 27.2289L35.5939 27.2811L35.6164 27.2494C35.5663 27.2155 35.0523 25.2111 25.4065 25.3608Z" fill="url(#paint24_linear_2607_2)"/>
<path d="M26.0339 24.6527C17.9086 24.7767 3.21828 26.487 3.08006 26.5023C3.07904 26.5023 2.90191 26.5269 2.78519 26.4255C2.76369 26.407 2.74629 26.3855 2.73298 26.3599L2.67871 26.4173C2.69612 26.4409 2.71557 26.4624 2.73605 26.4818C2.87734 26.6079 3.08211 26.5771 3.0903 26.5761C3.22545 26.5618 17.9127 24.8525 26.036 24.7285C35.048 24.5891 35.3736 26.5351 36.0688 27.0014C36.0821 27.0106 36.0934 27.0188 36.1036 27.025L36.1804 26.986C36.1753 26.9819 36.165 26.9758 36.1538 26.9686C35.6736 26.6386 35.2886 24.5092 26.0339 24.6527Z" fill="url(#paint25_linear_2607_2)"/>
<path d="M72.1998 28.8541C71.8977 29.0458 71.5486 29.1513 71.1933 29.1605C70.8411 29.1687 70.4756 29.1452 70.1244 29.1247C69.422 29.0355 68.7135 28.892 68.0091 28.7691C66.5982 28.5129 65.1863 28.2598 63.7714 28.021C60.9383 27.5681 58.0951 27.1705 55.2426 26.8538C52.3942 26.5341 49.5305 26.2185 46.6555 26.2615C45.219 26.2707 43.7836 26.3794 42.3625 26.5884C41.6529 26.6991 40.9465 26.8323 40.2533 27.0219C39.5622 27.2104 38.8721 27.4277 38.2363 27.7679L38.2486 27.7874C38.8824 27.4564 39.5745 27.2463 40.2656 27.0659C40.9588 26.8846 41.6642 26.7585 42.3727 26.656C43.7918 26.4624 45.2242 26.3701 46.6565 26.3763C49.5233 26.3568 52.3748 26.694 55.2201 27.0362C56.6422 27.2125 58.0633 27.4041 59.4814 27.6111C60.9015 27.8079 62.3185 28.0251 63.7335 28.2485C65.1515 28.4596 66.5675 28.685 67.9835 28.9136C68.693 29.0232 69.3944 29.1533 70.1172 29.2292C70.4807 29.2364 70.8339 29.2466 71.1974 29.2241C71.5599 29.2015 71.9162 29.0785 72.212 28.8736L72.1998 28.8541Z" fill="url(#paint26_linear_2607_2)"/>
<path d="M27.0692 4.08507C25.0697 3.66493 23.0424 3.35955 21.0008 3.25195L21.0019 3.26835C23.0393 3.39644 25.0625 3.72231 27.0539 4.16193C29.0453 4.60564 31.0039 5.19692 32.9063 5.93063L34.3212 6.51064L35.6993 7.17262C36.0855 7.34297 36.452 7.55047 36.8186 7.75802L36.8192 7.75836C36.8957 7.80165 36.9721 7.84494 37.0488 7.8879C37.198 7.97618 37.3502 8.05959 37.5024 8.14298L37.5026 8.14311C37.7972 8.30458 38.0917 8.466 38.3645 8.6626C40.1183 9.71194 41.6684 11.0482 43.1438 12.4603L43.1551 12.4501L42.0698 11.3659C42.0049 11.3038 41.9411 11.2404 41.8772 11.1769L41.8771 11.1769C41.7595 11.06 41.6416 10.9429 41.5169 10.834L40.921 10.3504C40.7815 10.2403 40.6442 10.1272 40.5067 10.014L40.5066 10.0139C40.2486 9.80143 39.9905 9.58884 39.718 9.39632L38.4474 8.53246C36.7038 7.46058 34.8751 6.51576 32.9503 5.81484C31.0357 5.09239 29.0678 4.51546 27.0692 4.08507Z" fill="#CECCD8"/>
<path d="M24.2792 5.91525C22.1885 5.54635 20.0732 5.29528 17.9497 5.23995L17.9487 5.25532C20.0701 5.33115 22.1803 5.6027 24.2649 5.99108C26.3505 6.38049 28.4084 6.91438 30.4101 7.6112C32.4076 8.3152 34.3519 9.18214 36.1754 10.2581C37.0959 10.7828 37.9692 11.3843 38.8149 12.0217C39.6545 12.6693 40.4408 13.3815 41.1944 14.1296L41.2057 14.1194C39.7733 12.5464 38.0747 11.2275 36.2543 10.1259C34.4226 9.03867 32.4639 8.17686 30.451 7.49438C28.4371 6.80883 26.3699 6.28928 24.2792 5.91525Z" fill="#CECCD8"/>
<path d="M16.0014 6.91028C18.1248 6.96562 20.2401 7.21668 22.3308 7.58559C24.4216 7.95962 26.4887 8.47917 28.5027 9.16472C30.5156 9.8472 32.4742 10.709 34.3059 11.7963C36.1263 12.8979 37.8249 14.2167 39.2573 15.7897L39.246 15.7999C38.4925 15.0519 37.7061 14.3397 36.8666 13.692C36.0209 13.0547 35.1475 12.4531 34.2271 11.9285C32.4036 10.8525 30.4593 9.98554 28.4617 9.28154C26.4601 8.58472 24.4021 8.05083 22.3165 7.66142C20.2319 7.27305 18.1218 7.00149 16.0003 6.92566L16.0014 6.91028Z" fill="#CECCD8"/>
<path d="M34.9346 15.3419C35.7741 15.9905 36.5564 16.7109 37.2976 17.4703L37.3079 17.46C36.5727 16.6935 35.7977 15.9649 34.9622 15.306C34.1226 14.6563 33.2534 14.0394 32.337 13.5004C30.5105 12.4101 28.56 11.538 26.5533 10.8361C25.5489 10.4866 24.5311 10.1762 23.5032 9.90357C22.4732 9.63816 21.434 9.41169 20.3886 9.21904C18.2938 8.86448 16.1775 8.60112 14.0519 8.58165V8.59702C16.1703 8.70769 18.2805 8.969 20.361 9.3707C22.4455 9.75396 24.5055 10.2745 26.5133 10.9519C28.518 11.6374 30.4695 12.4921 32.2981 13.566C33.2176 14.0948 34.0899 14.7004 34.9346 15.3419Z" fill="#CECCD8"/>
<path d="M12.1045 10.2509C14.228 10.3063 16.3433 10.5573 18.434 10.9262C20.5248 11.3003 22.5919 11.8198 24.6059 12.5054C26.6188 13.1879 28.5774 14.0497 30.4091 15.1369C32.2295 16.2385 33.9281 17.5574 35.3605 19.1303L35.3492 19.1406C34.5956 18.3925 33.8093 17.6803 32.9698 17.0327C32.124 16.3953 31.2507 15.7938 30.3302 15.2691C28.5068 14.1931 26.5624 13.3262 24.5649 12.6222C22.5633 11.9254 20.5053 11.3915 18.4197 11.0021C16.3351 10.6137 14.225 10.3421 12.1035 10.2663L12.1045 10.2509Z" fill="#CECCD8"/>
<path d="M49.0853 12.3301C48.5867 12.5781 48.0983 12.8548 47.6591 13.2012L47.6683 13.2124C48.1085 12.8722 48.599 12.5996 49.0986 12.3568C49.5972 12.1088 50.1163 11.9049 50.6385 11.7132C51.6879 11.3402 52.7732 11.0769 53.8657 10.8709C56.0567 10.4764 58.2898 10.3493 60.5136 10.4108C62.7395 10.4805 64.9653 10.5891 67.1892 10.7244C69.413 10.8494 71.6378 11.0051 73.8463 11.2972L73.8494 11.2818C72.7518 11.082 71.6429 10.959 70.5331 10.8494C69.4232 10.7408 68.3113 10.6485 67.1994 10.5696C64.9735 10.4292 62.7466 10.3298 60.5167 10.2868C58.2857 10.2417 56.0465 10.3842 53.8513 10.7951C52.7568 11.0123 51.6716 11.287 50.6231 11.6702C50.101 11.868 49.5829 12.077 49.0853 12.3301Z" fill="#CECCD8"/>
<path d="M45.9625 15.556C46.4018 15.2097 46.8902 14.933 47.3888 14.685C47.8864 14.4319 48.4044 14.2228 48.9266 14.0251C49.975 13.6418 51.0603 13.3672 52.1548 13.1499C54.35 12.739 56.5892 12.5966 58.8201 12.6417C61.0501 12.6847 63.277 12.7841 65.5029 12.9245C66.6148 13.0034 67.7267 13.0956 68.8366 13.2042C69.9464 13.3139 71.0553 13.4369 72.1528 13.6367L72.1498 13.6521C69.9413 13.36 67.7165 13.2042 65.4926 13.0792C63.2688 12.944 61.043 12.8353 58.8171 12.7657C56.5933 12.7042 54.3602 12.8312 52.1692 13.2258C51.0767 13.4317 49.9914 13.6951 48.942 14.0681C48.4198 14.2597 47.9007 14.4637 47.4021 14.7116C46.9024 14.9545 46.412 15.2271 45.9718 15.5673L45.9625 15.556Z" fill="#CECCD8"/>
<path d="M45.6922 17.0399C45.1936 17.2879 44.7052 17.5646 44.266 17.9109L44.2752 17.9222C44.7154 17.582 45.2059 17.3094 45.7055 17.0665C46.2041 16.8185 46.7232 16.6146 47.2454 16.423C48.2949 16.05 49.3801 15.7866 50.4726 15.5807C52.6637 15.1861 54.8967 15.0591 57.1205 15.1205C59.3464 15.1902 61.5723 15.2988 63.7961 15.4341C66.0199 15.5591 68.2447 15.7149 70.4532 16.0069L70.4563 15.9916C69.3587 15.7917 68.2499 15.6688 67.14 15.5591C66.0301 15.4505 64.9182 15.3583 63.8063 15.2794C61.5804 15.139 59.3536 15.0396 57.1236 14.9965C54.8926 14.9515 52.6534 15.0939 50.4583 15.5048C49.3638 15.7221 48.2785 15.9967 47.23 16.38C46.7079 16.5777 46.1898 16.7868 45.6922 17.0399Z" fill="#CECCD8"/>
<path d="M42.5695 20.2658C43.0087 19.9194 43.4971 19.6427 43.9957 19.3947C44.4933 19.1416 45.0114 18.9326 45.5335 18.7348C46.582 18.3516 47.6672 18.0769 48.7618 17.8597C50.9569 17.4488 53.1961 17.3063 55.4271 17.3514C57.657 17.3944 59.8839 17.4938 62.1098 17.6342C63.2217 17.7131 64.3336 17.8054 65.4435 17.914C66.5533 18.0236 67.6622 18.1466 68.7598 18.3464L68.7567 18.3618C66.5482 18.0698 64.3234 17.914 62.0996 17.789C59.8757 17.6537 57.6499 17.5451 55.424 17.4754C53.2002 17.4139 50.9671 17.541 48.7761 17.9355C47.6836 18.1415 46.5983 18.4048 45.5489 18.7778C45.0267 18.9695 44.5076 19.1734 44.009 19.4214C43.5094 19.6643 43.0189 19.9368 42.5787 20.2771L42.5695 20.2658Z" fill="#CECCD8"/>
<path d="M42.2992 21.7496C41.8006 21.9976 41.3122 22.2743 40.8729 22.6206L40.8822 22.6319C41.3224 22.2917 41.8128 22.0191 42.3125 21.7763C42.8111 21.5283 43.3302 21.3243 43.8524 21.1327C44.9018 20.7597 45.9871 20.4963 47.0796 20.2904C49.2706 19.8958 51.5037 19.7688 53.7275 19.8303C55.9534 19.8999 58.1792 20.0086 60.403 20.1438C62.6269 20.2689 64.8517 20.4246 67.0602 20.7167L67.0632 20.7013C65.9657 20.5015 64.8568 20.3785 63.747 20.2689C62.6371 20.1602 61.5252 20.068 60.4133 19.9891C58.1874 19.8487 55.9605 19.7493 53.7306 19.7063C51.4996 19.6612 49.2604 19.8036 47.0652 20.2145C45.9707 20.4318 44.8854 20.7064 43.837 21.0897C43.3148 21.2874 42.7968 21.4965 42.2992 21.7496Z" fill="#CECCD8"/>
<path d="M77.0527 11.3516L76.6565 12.4286L75.6336 15.0345L75.1197 16.3441L71.5935 25.324C71.5935 25.324 71.2546 25.8906 69.5959 25.738C69.5775 25.7369 69.556 25.7339 69.5304 25.7308C69.5212 25.7308 69.512 25.7298 69.5018 25.7287C69.3922 25.7164 69.2366 25.6939 69.039 25.6652C69.0175 25.6631 68.9949 25.6591 68.9714 25.655C68.9079 25.6457 68.8383 25.6365 68.7656 25.6252C68.7605 25.6242 68.7543 25.6242 68.7492 25.6232C68.7216 25.6191 68.6929 25.614 68.6642 25.6109C68.613 25.6037 68.5588 25.5945 68.5035 25.5873C68.31 25.5576 68.096 25.5258 67.8615 25.491C67.8277 25.4859 67.794 25.4807 67.7602 25.4756C67.623 25.4541 67.4786 25.4326 67.3281 25.41C67.2902 25.4049 67.2513 25.3988 67.2145 25.3936C67.0988 25.3762 66.981 25.3588 66.8592 25.3414C66.7906 25.3311 66.7189 25.3209 66.6472 25.3096C66.4261 25.2778 66.1947 25.244 65.952 25.2102C65.8609 25.1979 65.7688 25.1856 65.6746 25.1713C65.4463 25.1385 65.2108 25.1057 64.9661 25.0729C64.792 25.0493 64.6149 25.0247 64.4326 25.0012C64.0313 24.9479 63.6135 24.8946 63.1784 24.8403C63.0658 24.8249 62.9511 24.8116 62.8354 24.7972C62.1382 24.7122 61.4041 24.6261 60.6372 24.5452C60.5 24.5298 60.3638 24.5165 60.2256 24.5011C58.6376 24.3351 60.0608 24.413 58.2895 24.3023C58.0427 24.2859 57.7929 24.2705 57.5421 24.2582C57.2912 24.2429 57.0393 24.2306 56.7865 24.2193C56.6605 24.2131 56.5325 24.207 56.4076 24.2019C56.125 24.1875 55.8414 24.1762 55.5568 24.168C55.4606 24.1639 55.3612 24.1609 55.2619 24.1578C55.1022 24.1517 54.9404 24.1465 54.7797 24.1424C54.6343 24.1383 54.4869 24.1353 54.3415 24.1322C53.5695 24.1148 52.7985 24.1086 52.0276 24.1148C51.8781 24.1148 51.7286 24.1168 51.5812 24.1189C51.1839 24.124 50.7887 24.1322 50.3945 24.1455C49.9891 24.1578 49.5836 24.1742 49.1812 24.1957C49.0748 24.2008 48.9693 24.207 48.8628 24.2131C48.8475 24.2131 48.8341 24.2142 48.8219 24.2152C48.6826 24.2213 48.5423 24.2316 48.4051 24.2398C48.3662 24.2418 48.3253 24.2449 48.2874 24.247C48.1082 24.2582 47.9301 24.2726 47.753 24.2859C47.7243 24.2879 47.6977 24.29 47.669 24.292C47.5308 24.3033 47.3946 24.3146 47.2574 24.3269C46.7711 24.3699 46.2888 24.4181 45.8138 24.4765C45.7247 24.4867 45.6377 24.498 45.5486 24.5093C45.5281 24.5113 45.5076 24.5144 45.4882 24.5165C45.3551 24.5339 45.225 24.5513 45.094 24.5687C44.836 24.6056 44.5759 24.6446 44.322 24.6855C44.2442 24.6978 44.1674 24.7112 44.0896 24.7235C43.9636 24.745 43.8357 24.7675 43.7108 24.7901C43.6145 24.8075 43.5193 24.8249 43.421 24.8444C43.2951 24.8679 43.1691 24.8925 43.0442 24.9182C42.8835 24.951 42.7217 24.9848 42.5651 25.0196C41.0129 25.3639 39.5907 25.821 38.359 26.4163L38.1256 26.3405L37.8799 26.2616C38.0765 26.0095 38.4532 25.2768 38.4532 25.2768C39.6829 24.6814 41.105 24.2244 42.6572 23.8801C42.8149 23.8453 42.9756 23.8114 43.1364 23.7786C43.2623 23.753 43.3872 23.7284 43.5142 23.7049C43.6104 23.6864 43.7077 23.668 43.8039 23.6506C43.9299 23.628 44.0558 23.6055 44.1828 23.5839C44.2595 23.5716 44.3363 23.5593 44.4141 23.546C44.6691 23.505 44.9271 23.4661 45.1872 23.4292C45.3172 23.4118 45.4482 23.3944 45.5803 23.3769C45.6008 23.3749 45.6203 23.3718 45.6407 23.3698C45.7298 23.3585 45.8179 23.3472 45.9069 23.337C46.5151 23.2632 47.1356 23.2027 47.7622 23.1525C47.7898 23.1505 47.8175 23.1484 47.8451 23.1464C48.0222 23.1331 48.2014 23.1187 48.3796 23.1074C48.4185 23.1054 48.4584 23.1023 48.4973 23.1003C48.6355 23.091 48.7748 23.0818 48.914 23.0746C48.9273 23.0736 48.9417 23.0726 48.955 23.0726C49.0614 23.0664 49.1669 23.0603 49.2734 23.0552C49.6758 23.0337 50.0812 23.0173 50.4877 23.005C50.8819 22.9927 51.2771 22.9834 51.6743 22.9783C51.8228 22.9773 51.9712 22.9742 52.1197 22.9742C52.8896 22.9681 53.6627 22.9742 54.4336 22.9916C54.58 22.9937 54.7265 22.9978 54.8718 23.0019C55.0326 23.006 55.1944 23.0111 55.3551 23.0173C55.4544 23.0193 55.5517 23.0234 55.65 23.0275C55.9336 23.0367 56.2172 23.048 56.4998 23.0613C56.6267 23.0664 56.7537 23.0726 56.8786 23.0787C57.1305 23.09 57.3834 23.1023 57.6342 23.1177C57.8851 23.131 58.1349 23.1464 58.3837 23.1617C60.1539 23.2724 58.7308 23.1945 60.3198 23.3605C60.458 23.3759 60.5942 23.3892 60.7314 23.4046C61.4982 23.4866 62.2324 23.5716 62.9296 23.6567C63.0453 23.67 63.1589 23.6844 63.2726 23.6997C63.7077 23.754 64.1255 23.8073 64.5268 23.8606C64.7091 23.8842 64.8852 23.9088 65.0603 23.9324C65.305 23.9651 65.5404 23.9979 65.7688 24.0307C65.863 24.0451 65.9541 24.0574 66.0462 24.0697C66.2879 24.1035 66.5203 24.1373 66.7414 24.1691C66.8131 24.1803 66.8848 24.1906 66.9534 24.2008C67.0752 24.2183 67.193 24.2357 67.3087 24.2531C67.3465 24.2582 67.3854 24.2644 67.4223 24.2695C67.5728 24.292 67.7172 24.3136 67.8544 24.3351C67.8882 24.3402 67.9219 24.3453 67.9557 24.3505C68.1902 24.3853 68.4052 24.4171 68.5977 24.4468C68.653 24.454 68.7072 24.4632 68.7584 24.4703C68.7871 24.4744 68.8158 24.4796 68.8434 24.4826C68.8485 24.4837 68.8547 24.4837 68.8598 24.4847C68.9325 24.496 69.0021 24.5062 69.0656 24.5144C69.0891 24.5185 69.1117 24.5216 69.1332 24.5247C69.3318 24.5534 69.4874 24.5759 69.5959 24.5892C69.6062 24.5902 69.6164 24.5913 69.6246 24.5913C69.6502 24.5954 69.6707 24.5974 69.6901 24.5984C71.3488 24.7501 71.6877 24.1844 71.6877 24.1844L75.2128 15.2046L75.7268 13.895L76.7496 11.2891L77.0527 11.3516Z" fill="url(#paint27_linear_2607_2)"/>
<path opacity="0.3" d="M36.4329 26.8579C30.4853 17.9171 14.5869 21.5949 12.5924 21.0323C11.3167 20.6736 15.2749 17.0768 17.4997 14.3018C23.6296 15.9004 30.512 18.6252 34.6719 24.0604C34.7303 24.1362 36.3756 26.7801 36.4329 26.8579Z" fill="#5877B1"/>
<path opacity="0.5" d="M34.8457 24.291C35.5174 25.0063 36.059 25.8548 36.4337 26.858C35.9699 25.9419 35.4385 25.0883 34.8457 24.291Z" fill="#D7D6DE"/>
<path d="M45.1248 12.4541L37.5595 24.9908L36.4342 26.8569C36.4342 26.8569 36.51 29.018 35.9797 30.011C35.394 31.1085 34.3906 32.2901 34.3906 32.2901L35.3213 31.9314L35.8414 32.2962C35.8414 32.2962 37.0639 30.2559 37.5779 29.3224C38.0141 28.5292 37.67 27.2821 37.9997 26.5238C38.011 26.4962 38.484 26.1908 37.9997 26.5238C37.8676 26.615 38.4676 25.7255 38.9785 24.873C41.1942 21.1726 46.4896 12.3506 46.4896 12.3506L45.1248 12.4541Z" fill="#749DED"/>
<defs>
<linearGradient id="paint0_linear_2607_2" x1="19.446" y1="26.3168" x2="10.4098" y2="45.9668" gradientUnits="userSpaceOnUse">
<stop stop-color="#9C9BAE"/>
<stop offset="0.2181" stop-color="#ACACBB"/>
<stop offset="0.6457" stop-color="#D7D7DE"/>
<stop offset="1" stop-color="white"/>
</linearGradient>
<linearGradient id="paint1_linear_2607_2" x1="59.5814" y1="23.6152" x2="65.1292" y2="41.2225" gradientUnits="userSpaceOnUse">
<stop stop-color="#9C9BAE"/>
<stop offset="0.2181" stop-color="#ACACBB"/>
<stop offset="0.6457" stop-color="#D7D7DE"/>
<stop offset="1" stop-color="white"/>
</linearGradient>
<linearGradient id="paint2_linear_2607_2" x1="0.281767" y1="21.0328" x2="36.4338" y2="21.0328" gradientUnits="userSpaceOnUse">
<stop stop-color="#142533"/>
<stop offset="0.0518" stop-color="#162734"/>
<stop offset="0.4477" stop-color="#1F2F3B"/>
<stop offset="1" stop-color="#22313D"/>
</linearGradient>
<linearGradient id="paint3_linear_2607_2" x1="38.3222" y1="24.3531" x2="81.4623" y2="24.3531" gradientUnits="userSpaceOnUse">
<stop stop-color="#142533"/>
<stop offset="0.0518" stop-color="#162734"/>
<stop offset="0.4477" stop-color="#1F2F3B"/>
<stop offset="1" stop-color="#22313D"/>
</linearGradient>
<linearGradient id="paint4_linear_2607_2" x1="39.3624" y1="25.2582" x2="40.2124" y2="24.7402" gradientUnits="userSpaceOnUse">
<stop stop-color="#DFDEE8"/>
<stop offset="1" stop-color="white"/>
</linearGradient>
<linearGradient id="paint5_linear_2607_2" x1="38.1907" y1="27.7044" x2="38.4554" y2="27.7044" gradientUnits="userSpaceOnUse">
<stop stop-color="#ECECF1"/>
<stop offset="0.1236" stop-color="#F1F1F5"/>
<stop offset="0.5325" stop-color="#FCFCFC"/>
<stop offset="1" stop-color="white"/>
</linearGradient>
<linearGradient id="paint6_linear_2607_2" x1="70.1924" y1="28.1665" x2="70.2476" y2="28.1665" gradientUnits="userSpaceOnUse">
<stop stop-color="#ECECF1"/>
<stop offset="0.1236" stop-color="#F1F1F5"/>
<stop offset="0.5325" stop-color="#FCFCFC"/>
<stop offset="1" stop-color="white"/>
</linearGradient>
<linearGradient id="paint7_linear_2607_2" x1="23.0451" y1="33.2827" x2="13.7348" y2="13.8841" gradientUnits="userSpaceOnUse">
<stop stop-color="#E7DEE8"/>
<stop offset="1" stop-color="white"/>
</linearGradient>
<linearGradient id="paint8_linear_2607_2" x1="1.68485" y1="25.52" x2="36.4343" y2="25.52" gradientUnits="userSpaceOnUse">
<stop offset="0.00121702" stop-color="#C2D5E4"/>
<stop offset="1" stop-color="#C0C0D3"/>
</linearGradient>
<linearGradient id="paint9_linear_2607_2" x1="74.388" y1="20.5776" x2="75.1585" y2="20.8962" gradientUnits="userSpaceOnUse">
<stop stop-color="#DFDEE8"/>
<stop offset="1" stop-color="white"/>
</linearGradient>
<linearGradient id="paint10_linear_2607_2" x1="74.6382" y1="21.4801" x2="76.0769" y2="22.2348" gradientUnits="userSpaceOnUse">
<stop stop-color="#DFDEE8"/>
<stop offset="1" stop-color="white"/>
</linearGradient>
<linearGradient id="paint11_linear_2607_2" x1="75.5393" y1="22.7104" x2="76.5842" y2="23.3224" gradientUnits="userSpaceOnUse">
<stop stop-color="#DFDEE8"/>
<stop offset="1" stop-color="white"/>
</linearGradient>
<linearGradient id="paint12_linear_2607_2" x1="38.4489" y1="26.2609" x2="38.4991" y2="26.2609" gradientUnits="userSpaceOnUse">
<stop stop-color="#ECECF1"/>
<stop offset="0.1236" stop-color="#F1F1F5"/>
<stop offset="0.5325" stop-color="#FCFCFC"/>
<stop offset="1" stop-color="white"/>
</linearGradient>
<linearGradient id="paint13_linear_2607_2" x1="38.4549" y1="27.9397" x2="39.0597" y2="27.9397" gradientUnits="userSpaceOnUse">
<stop stop-color="#ECECF1"/>
<stop offset="0.1236" stop-color="#F1F1F5"/>
<stop offset="0.5325" stop-color="#FCFCFC"/>
<stop offset="1" stop-color="white"/>
</linearGradient>
<linearGradient id="paint14_linear_2607_2" x1="38.4489" y1="26.2609" x2="38.4991" y2="26.2609" gradientUnits="userSpaceOnUse">
<stop stop-color="#DFDEE8"/>
<stop offset="1" stop-color="white"/>
</linearGradient>
<linearGradient id="paint15_linear_2607_2" x1="70.1924" y1="28.1665" x2="70.2476" y2="28.1665" gradientUnits="userSpaceOnUse">
<stop stop-color="#ECECF1"/>
<stop offset="0.1236" stop-color="#F1F1F5"/>
<stop offset="0.5325" stop-color="#FCFCFC"/>
<stop offset="1" stop-color="white"/>
</linearGradient>
<linearGradient id="paint16_linear_2607_2" x1="75.0064" y1="19.827" x2="49.93" y2="15.0735" gradientUnits="userSpaceOnUse">
<stop stop-color="white"/>
<stop offset="1" stop-color="#EDEEFF"/>
</linearGradient>
<linearGradient id="paint17_linear_2607_2" x1="70.2056" y1="28.165" x2="70.2707" y2="28.176" gradientUnits="userSpaceOnUse">
<stop stop-color="#ECECF1"/>
<stop offset="0.1236" stop-color="#F1F1F5"/>
<stop offset="0.5325" stop-color="#FCFCFC"/>
<stop offset="1" stop-color="white"/>
</linearGradient>
<linearGradient id="paint18_linear_2607_2" x1="37.4766" y1="26.2749" x2="71.5469" y2="26.2749" gradientUnits="userSpaceOnUse">
<stop offset="0.00121702" stop-color="#C2D5E4"/>
<stop offset="1" stop-color="#C0C0D3"/>
</linearGradient>
<linearGradient id="paint19_linear_2607_2" x1="64.2247" y1="20.9034" x2="81.8147" y2="25.6404" gradientUnits="userSpaceOnUse">
<stop stop-color="#DFDEE8"/>
<stop offset="1" stop-color="white"/>
</linearGradient>
<linearGradient id="paint20_linear_2607_2" x1="37.7917" y1="27.7115" x2="72.7843" y2="27.7115" gradientUnits="userSpaceOnUse">
<stop offset="0.00121702" stop-color="#C2D5E4"/>
<stop offset="1" stop-color="#C0C0D3"/>
</linearGradient>
<linearGradient id="paint21_linear_2607_2" x1="34.1802" y1="28.1292" x2="38.455" y2="28.1292" gradientUnits="userSpaceOnUse">
<stop stop-color="#142533"/>
<stop offset="0.0518" stop-color="#162734"/>
<stop offset="0.4477" stop-color="#1F2F3B"/>
<stop offset="1" stop-color="#22313D"/>
</linearGradient>
<linearGradient id="paint22_linear_2607_2" x1="52.505" y1="18.0703" x2="16.0564" y2="11.4047" gradientUnits="userSpaceOnUse">
<stop stop-color="white"/>
<stop offset="1" stop-color="#EDEEFF"/>
</linearGradient>
<linearGradient id="paint23_linear_2607_2" x1="6.4832" y1="18.9301" x2="36.4338" y2="18.9301" gradientUnits="userSpaceOnUse">
<stop offset="0.00121702" stop-color="#C2D5E4"/>
<stop offset="1" stop-color="#C0C0D3"/>
</linearGradient>
<linearGradient id="paint24_linear_2607_2" x1="2.48414" y1="26.3174" x2="35.6162" y2="26.3174" gradientUnits="userSpaceOnUse">
<stop offset="0.00121702" stop-color="#C2D5E4"/>
<stop offset="0.3123" stop-color="#A8BACF"/>
<stop offset="1" stop-color="#7283A3"/>
</linearGradient>
<linearGradient id="paint25_linear_2607_2" x1="2.67845" y1="25.8351" x2="36.1793" y2="25.8351" gradientUnits="userSpaceOnUse">
<stop offset="0.00121702" stop-color="#C2D5E4"/>
<stop offset="0.3123" stop-color="#A8BACF"/>
<stop offset="1" stop-color="#7283A3"/>
</linearGradient>
<linearGradient id="paint26_linear_2607_2" x1="38.236" y1="27.7479" x2="72.2119" y2="27.7479" gradientUnits="userSpaceOnUse">
<stop offset="0.00121702" stop-color="#C2D5E4"/>
<stop offset="0.3123" stop-color="#A8BACF"/>
<stop offset="1" stop-color="#7283A3"/>
</linearGradient>
<linearGradient id="paint27_linear_2607_2" x1="37.8817" y1="18.8542" x2="77.0525" y2="18.8542" gradientUnits="userSpaceOnUse">
<stop offset="0.00121702" stop-color="#C2D5E4"/>
<stop offset="1" stop-color="#C0C0D3"/>
</linearGradient>
</defs>
</svg>
