<svg width="52" height="61" viewBox="0 0 52 61" fill="none" xmlns="http://www.w3.org/2000/svg">
<path d="M45.7936 39.3687C42.0185 43.7224 37.69 42.2295 37.7135 37.0464C37.7311 33.2968 35.2133 31.72 32.4129 34.0894C24.5285 40.7633 31.243 54.0404 19.6879 58.649C8.72516 63.0253 -1.63141 49.27 0.598061 33.3941C-0.592034 48.4478 9.37175 60.9549 19.8967 56.7558C31.4511 52.1472 24.7379 38.867 32.6217 32.1972C35.4227 29.8237 37.9406 31.4016 37.9223 35.1542C37.8994 40.3342 42.2279 41.8261 46.0024 37.4765C48.5026 34.5972 50.6662 31.4261 51.5405 25.0891C50.9579 32.1582 48.5405 36.2058 45.7936 39.3687Z" fill="url(#paint0_linear_2607_195)"/>
<path d="M51.542 25.0862C50.6664 31.4252 48.5041 34.5963 46.0045 37.4766C42.2287 41.8262 37.9002 40.3313 37.9231 35.1554C37.9329 33.5898 37.4964 32.401 36.7871 31.7222C36.5725 31.5153 36.3285 31.3546 36.0655 31.244C35.1188 30.8508 33.9 31.1129 32.6231 32.1952C32.4822 32.3161 32.3439 32.4369 32.2121 32.5628C32.0065 32.7543 31.8108 32.9509 31.6281 33.1516C29.488 35.4974 28.7148 38.4585 28.2053 41.519C28.1505 41.8467 28.0996 42.1733 28.048 42.501C27.9293 43.2812 27.8203 44.0614 27.7016 44.8375C27.6663 45.0536 27.6311 45.2707 27.5991 45.4867C27.5319 45.8994 27.4608 46.3069 27.3812 46.7154C27.1789 47.7782 26.9291 48.8196 26.5826 49.8169C26.5663 49.8619 26.5506 49.908 26.5343 49.953C26.0495 51.3026 25.3827 52.561 24.4138 53.674C23.3392 54.9078 21.8888 55.9593 19.8968 56.7549C9.3732 60.954 -0.591239 48.4479 0.598856 33.3942C1.27872 28.5409 3.13629 23.4909 6.51149 18.6979C21.5293 -2.63949 38.8796 -3.28866 47.6794 8.86013C51.0898 13.5671 52.0072 19.473 51.542 25.0862Z" fill="url(#paint1_linear_2607_195)"/>
<path d="M11.6131 38.5201C11.4493 39.029 11.1923 39.4938 10.8432 39.8686C9.65049 41.1433 7.84447 40.8884 6.80901 39.2931C6.53171 38.8662 6.33858 38.389 6.22701 37.8914C6.15785 37.5944 6.12066 37.2934 6.11152 36.9914C6.10761 36.9023 6.10761 36.8132 6.11022 36.7251L6.12131 36.4722L6.12261 36.4661C6.19243 35.5661 6.51801 34.7121 7.09022 34.0988C8.28097 32.823 10.0883 33.082 11.1244 34.6742C11.6268 35.4483 11.8552 36.3903 11.8225 37.3037L11.8206 37.3508L11.8062 37.5494C11.7971 37.6579 11.7854 37.7685 11.7651 37.875C11.7312 38.0951 11.6797 38.3122 11.6131 38.5201Z" fill="url(#paint2_linear_2607_195)"/>
<path d="M16.4004 22.7271C16.3574 22.9657 16.2908 23.2012 16.2008 23.4234C16.0409 23.8278 15.8041 24.1933 15.4961 24.4944C14.3119 25.6432 12.5078 25.3821 11.4639 23.9128C11.1403 23.4561 10.9276 22.9401 10.8238 22.4066C10.7866 22.2203 10.7638 22.0308 10.756 21.8404C10.7501 21.7503 10.7475 21.6632 10.7481 21.5742L10.7488 21.5506L10.7684 21.2506C10.7671 21.2363 10.769 21.227 10.7723 21.2148L10.7703 21.2137C10.8551 20.4325 11.1729 19.6983 11.7151 19.169C12.8993 18.0201 14.7034 18.2812 15.7473 19.7506C16.2582 20.4673 16.4918 21.3397 16.4579 22.1803L16.4598 22.1813L16.4559 22.2274L16.4474 22.3708C16.4389 22.4895 16.4233 22.6093 16.4004 22.7271Z" fill="url(#paint3_linear_2607_195)"/>
<path d="M25.5748 12.8145C25.5428 12.9558 25.501 13.091 25.4488 13.2241C25.2903 13.6122 25.0417 13.9634 24.7018 14.2398C23.5312 15.1921 21.7259 14.9269 20.6695 13.648C20.4744 13.4115 20.3185 13.1586 20.203 12.8903C20.0621 12.5801 19.9779 12.2534 19.9486 11.9268C19.9355 11.8091 19.9316 11.6893 19.9368 11.5715L19.9479 11.3872L19.9499 11.3882C20.0138 10.6991 20.3218 10.0561 20.8777 9.60354C22.0469 8.6472 23.8522 8.91137 24.9086 10.1913C25.501 10.908 25.7313 11.7927 25.6152 12.5985C25.6048 12.6722 25.5911 12.7439 25.5748 12.8145Z" fill="#749DED"/>
<path d="M37.871 10.179C37.8227 10.3941 37.7477 10.5968 37.6466 10.7924C37.4919 11.0965 37.276 11.3698 36.9987 11.5941C35.8295 12.5504 34.0241 12.2863 32.9677 11.0064C32.7087 10.693 32.5189 10.3449 32.3975 9.98756C32.3166 9.75205 32.267 9.51451 32.2461 9.27798C32.237 9.20016 32.2331 9.12235 32.2324 9.04555L32.2344 9.01893C32.2318 8.89299 32.2409 8.76705 32.2553 8.64418L32.2585 8.62882C32.3427 7.9858 32.65 7.3868 33.1739 6.95778C34.3444 6.00554 36.1479 6.26869 37.2062 7.54961C37.7653 8.22744 38.0022 9.05681 37.9271 9.82578L37.9239 9.86878C37.9108 9.97322 37.8939 10.0777 37.871 10.179Z" fill="#A1BEF2"/>
<path d="M46.6996 19.858C46.6677 20.027 46.62 20.1898 46.56 20.3464C46.423 20.7089 46.2142 21.0376 45.9402 21.3058C44.9308 22.2857 43.3884 22.0646 42.4971 20.8113C42.2988 20.5317 42.15 20.2276 42.0482 19.9082C41.964 19.6471 41.9131 19.3768 41.8968 19.1095C41.8897 19.0256 41.8864 18.9416 41.8857 18.8576L41.904 18.5331V18.5228C41.9725 17.8501 42.2439 17.2173 42.7118 16.7637C43.7211 15.7838 45.2629 16.0081 46.1542 17.2614C46.5978 17.8849 46.7955 18.6447 46.7583 19.3727C46.759 19.3901 46.7583 19.4106 46.757 19.4269C46.7486 19.5744 46.729 19.7188 46.6996 19.858Z" fill="#D6E7FA"/>
<path d="M49.1599 61.2757C48.7031 62.0948 47.5156 61.0545 47.5156 61.0545L30.7852 47.0729C30.7852 47.0729 32.3041 46.5179 32.9076 44.5499C33.4864 42.6639 32.9553 42.0495 32.9109 42.0024L33.1529 42.1939L49.1605 59.5452C49.1599 59.5442 49.6179 60.4565 49.1599 61.2757Z" fill="url(#paint4_linear_2607_195)"/>
<path d="M30.3094 46.5476L22.9307 38.4054C22.9307 38.4054 24.2415 37.2842 24.2617 35.1821L32.4221 41.6185C32.4221 41.6175 32.7176 44.7619 30.3094 46.5476Z" fill="url(#paint5_linear_2607_195)"/>
<path d="M32.9077 44.5499C32.3048 46.5179 30.7852 47.0729 30.7852 47.0729L30.3096 46.5476C32.7178 44.7619 32.4216 41.6174 32.4216 41.6174L32.907 41.9994C32.907 41.9994 32.9083 41.9994 32.9103 42.0014C32.9553 42.0495 33.4858 42.6639 32.9077 44.5499Z" fill="url(#paint6_linear_2607_195)"/>
<path d="M25.9208 36.4907C25.9208 36.4907 26.0721 38.9481 24.4834 40.1205L25.5286 41.2734C25.5286 41.2734 27.302 39.4847 27.0065 37.3467L25.9208 36.4907Z" fill="url(#paint7_linear_2607_195)"/>
<path d="M32.9077 44.5499C32.3048 46.5179 30.7852 47.0729 30.7852 47.0729L30.3096 46.5476C32.7178 44.7619 32.4216 41.6174 32.4216 41.6174L32.907 41.9994C32.907 41.9994 32.9083 41.9994 32.9103 42.0014C32.9553 42.0495 33.4858 42.6639 32.9077 44.5499Z" fill="url(#paint8_linear_2607_195)"/>
<path d="M24.2618 35.1821C24.2853 38.2692 22.9307 38.4054 22.9307 38.4054C20.4331 39.4969 18.6206 35.9275 17.8585 33.2438C17.0957 30.5611 15.7823 30.6574 16.1797 30.1792C16.2684 30.0727 16.5105 29.9918 16.8498 29.9396C17.7189 29.8075 18.5958 29.9754 19.4257 30.3993C19.5138 30.4444 19.6032 30.4915 19.6952 30.5427C19.6749 30.511 19.4459 30.1577 18.8776 29.9212C19.8602 30.0103 20.8781 30.2304 21.4914 30.6082C22.8949 31.4714 24.2618 35.1821 24.2618 35.1821Z" fill="url(#paint9_linear_2607_195)"/>
<defs>
<linearGradient id="paint0_linear_2607_195" x1="2.34771" y1="25.6566" x2="49.324" y2="36.2966" gradientUnits="userSpaceOnUse">
<stop stop-color="#7C889D"/>
<stop offset="0.1864" stop-color="#929EB0"/>
<stop offset="0.5363" stop-color="#B7C2CF"/>
<stop offset="0.82" stop-color="#CED9E2"/>
<stop offset="1" stop-color="#D6E1E9"/>
</linearGradient>
<linearGradient id="paint1_linear_2607_195" x1="27.7725" y1="72.1726" x2="17.9516" y2="-29.1491" gradientUnits="userSpaceOnUse">
<stop stop-color="#C0D2E1"/>
<stop offset="0.0383" stop-color="#C5D6E3"/>
<stop offset="0.2589" stop-color="#DFE8F0"/>
<stop offset="0.488" stop-color="#F1F5F8"/>
<stop offset="0.7286" stop-color="#FBFCFD"/>
<stop offset="1" stop-color="white"/>
</linearGradient>
<linearGradient id="paint2_linear_2607_195" x1="8.6857" y1="35.5301" x2="-24.4242" y2="-33.4867" gradientUnits="userSpaceOnUse">
<stop stop-color="#465A80"/>
<stop offset="0.6513" stop-color="#2B3D52"/>
<stop offset="1" stop-color="#20313F"/>
</linearGradient>
<linearGradient id="paint3_linear_2607_195" x1="5.64439" y1="-0.639764" x2="35.2301" y2="33.2531" gradientUnits="userSpaceOnUse">
<stop stop-color="#8FAFFF"/>
<stop offset="1" stop-color="#0D5ADA"/>
</linearGradient>
<linearGradient id="paint4_linear_2607_195" x1="41.3545" y1="50.3047" x2="38.7766" y2="53.2615" gradientUnits="userSpaceOnUse">
<stop stop-color="#677A98"/>
<stop offset="0.1147" stop-color="#607390"/>
<stop offset="0.6705" stop-color="#41576C"/>
<stop offset="0.9671" stop-color="#354C5E"/>
</linearGradient>
<linearGradient id="paint5_linear_2607_195" x1="27.0815" y1="42.5468" x2="29.7574" y2="39.2076" gradientUnits="userSpaceOnUse">
<stop stop-color="#7C879C"/>
<stop offset="0.1798" stop-color="#919CAE"/>
<stop offset="0.5326" stop-color="#B6C1CE"/>
<stop offset="0.8186" stop-color="#CDD8E1"/>
<stop offset="1" stop-color="#D5E0E8"/>
</linearGradient>
<linearGradient id="paint6_linear_2607_195" x1="28.3873" y1="47.4625" x2="35.4612" y2="44.794" gradientUnits="userSpaceOnUse">
<stop stop-color="#3D4F71" stop-opacity="0"/>
<stop offset="0.17" stop-color="#334561" stop-opacity="0.068"/>
<stop offset="0.4334" stop-color="#293A4E" stop-opacity="0.1734"/>
<stop offset="0.7061" stop-color="#223343" stop-opacity="0.2825"/>
<stop offset="1" stop-color="#20313F" stop-opacity="0.4"/>
</linearGradient>
<linearGradient id="paint7_linear_2607_195" x1="26.049" y1="38.5475" x2="30.4749" y2="33.659" gradientUnits="userSpaceOnUse">
<stop stop-color="#7C879C"/>
<stop offset="0.1798" stop-color="#919CAE"/>
<stop offset="0.5326" stop-color="#B6C1CE"/>
<stop offset="0.8186" stop-color="#CDD8E1"/>
<stop offset="1" stop-color="#D5E0E8"/>
</linearGradient>
<linearGradient id="paint8_linear_2607_195" x1="32.1545" y1="44.0749" x2="36.5804" y2="39.1864" gradientUnits="userSpaceOnUse">
<stop stop-color="#7C879C"/>
<stop offset="0.1798" stop-color="#919CAE"/>
<stop offset="0.5326" stop-color="#B6C1CE"/>
<stop offset="0.8186" stop-color="#CDD8E1"/>
<stop offset="1" stop-color="#D5E0E8"/>
</linearGradient>
<linearGradient id="paint9_linear_2607_195" x1="20.4427" y1="32.3771" x2="18.9641" y2="34.5184" gradientUnits="userSpaceOnUse">
<stop stop-color="#8FAFFF"/>
<stop offset="0.5478" stop-color="#4982EB"/>
<stop offset="1" stop-color="#0D5ADA"/>
</linearGradient>
</defs>
</svg>
