<svg width="82" height="82" viewBox="0 0 82 82" fill="none" xmlns="http://www.w3.org/2000/svg">
<path d="M29.042 52.9583C25.6253 52.9583 18.792 56.3749 18.792 64.9166" stroke="#70CAFA" stroke-width="3" stroke-linecap="round"/>
<path d="M53.458 52.9583C56.8747 52.9583 63.708 56.3749 63.708 64.9166" stroke="#70CAFA" stroke-width="3" stroke-linecap="round"/>
<path d="M48.3337 52.9583L42.1215 60.4128M39.792 63.2083L42.1215 60.4128M34.667 52.9583L42.1215 60.4128" stroke="#70CAFA" stroke-width="3" stroke-linecap="round"/>
<path d="M29.5414 18.7917C24.4164 22.2084 19.2914 40.3167 32.958 44.4167" stroke="#70CAFA" stroke-width="3" stroke-linecap="round"/>
<path d="M53.4586 18.7917C58.5836 22.2084 63.7087 40.3167 50.042 44.4167" stroke="#70CAFA" stroke-width="3" stroke-linecap="round"/>
<path d="M31.6745 32.4583C31.3983 33.5408 31.25 34.6877 31.25 35.8749C31.25 42.4793 35.8391 49.5416 41.5 49.5416C47.1609 49.5416 51.75 42.4793 51.75 35.8749C51.75 34.6877 51.6017 33.5408 51.3255 32.4583" stroke="#70CAFA" stroke-width="3" stroke-linecap="round"/>
<path d="M44.9166 25.625C43.4145 27.1271 39.2709 31.2707 30.1631 32.2493" stroke="#70CAFA" stroke-width="3" stroke-linecap="round"/>
<path d="M43.208 29.0417C44.9163 30.7501 46.6247 32.4584 51.7497 32.4584" stroke="#70CAFA" stroke-width="3" stroke-linecap="round"/>
<path d="M55.0163 12.954C55.0992 12.8105 55.0501 12.6269 54.9057 12.5456C50.8145 10.2431 46.1976 9.03225 41.4997 9.03225C36.8017 9.03225 32.1848 10.2431 28.0937 12.5456C27.9493 12.6269 27.9002 12.8105 27.983 12.954L33.4169 22.3658C33.4998 22.5093 33.6831 22.5582 33.8282 22.4781C36.1755 21.1814 38.8148 20.5001 41.4997 20.5001C44.1846 20.5001 46.8239 21.1814 49.1712 22.4781C49.3162 22.5582 49.4996 22.5093 49.5824 22.3658L55.0163 12.954Z" stroke="#70CAFA" stroke-width="3"/>
<path d="M28.1875 58.9375V64.0625M25.625 61.5H30.75" stroke="#2EDF40" stroke-width="3" stroke-linecap="round"/>
</svg>
