<svg width="1438" height="949" viewBox="0 0 1438 949" fill="none" xmlns="http://www.w3.org/2000/svg">
<circle cx="1106.5" cy="703.908" r="4.5" fill="#B2E3FF"/>
<circle cx="697.5" cy="778.908" r="4.5" fill="#B2E3FF"/>
<circle cx="385.5" cy="845.908" r="4.5" fill="#B2E3FF"/>
<path d="M2 1C40.9129 93.0318 142.496 272.713 237.526 255.183C356.313 233.271 437.429 161.434 539.272 228.888C602.669 270.879 596.617 401.265 653.962 496.219C711.308 591.172 961.17 360.362 961.17 360.362C961.17 360.362 1137.3 192.368 1154.37 360.362C1171.44 528.357 1101.12 728.49 1133.21 769.393C1158.88 802.115 1346.43 652.527 1437 573.642" stroke="#23A6F0" stroke-width="3"/>
<circle cx="1125.5" cy="185.908" r="4.5" fill="#B2E3FF"/>
<circle cx="702.5" cy="230.908" r="4.5" fill="#B2E3FF"/>
<circle cx="415.5" cy="213.908" r="4.5" fill="#B2E3FF"/>
<path fill-rule="evenodd" clip-rule="evenodd" d="M301.01 948.242C300.434 844.488 128.037 661 2.00011 661L2.00011 948.242H301.01Z" fill="#23A6F0"/>
</svg>
