<svg width="1440" height="916" viewBox="0 0 1440 916" fill="none" xmlns="http://www.w3.org/2000/svg">
<path d="M1233.41 435.601C1298.52 496.335 1388.29 500.871 1440 492.351V780H398V571.195C408.027 571.195 425.299 567.093 442.217 571.195C479.876 580.324 524.358 649.837 562.126 658.307C654.152 678.948 750.526 530.595 750.526 530.595C750.526 530.595 818.343 443.616 864.291 390.842C909.218 339.241 951.735 310 1043.27 310C1117.2 310 1188.2 393.422 1233.41 435.601Z" fill="#23A6F0"/>
<path d="M285.496 449.962C195.52 532.147 71.4574 538.285 0 526.756V916H1440V633.446C1426.14 633.446 1402.27 627.896 1378.89 633.446C1326.85 645.8 1265.38 739.864 1213.18 751.327C1086.01 779.257 952.823 578.507 952.823 578.507C952.823 578.507 859.103 460.808 795.605 389.394C733.519 319.568 674.762 280 548.261 280C446.097 280 347.983 392.886 285.496 449.962Z" fill="#B2E3FF"/>
<path d="M374 1C402.853 35.884 478.173 103.991 548.634 97.3462C636.71 89.0405 696.855 61.8113 772.367 87.3794C819.374 103.296 814.887 152.718 857.406 188.709C899.926 224.7 1085.19 137.214 1085.19 137.214C1085.19 137.214 1215.78 73.5365 1228.44 137.214C1241.09 200.891 1188.96 276.75 1212.75 292.254C1231.78 304.657 1370.85 247.956 1438 218.056" stroke="#23A6F0"/>
<path d="M90.3292 484.798C89.7903 482.553 91.8844 480.566 94.0987 481.222L100.741 483.19C102.956 483.846 103.629 486.653 101.954 488.243L96.9281 493.012C95.2527 494.601 92.4849 493.781 91.946 491.535L90.3292 484.798Z" fill="#23A6F0"/>
<path d="M880.467 254.936C879.928 252.69 882.022 250.703 884.236 251.359L890.879 253.327C893.093 253.984 893.767 256.791 892.092 258.38L887.066 263.149C885.39 264.738 882.623 263.918 882.084 261.673L880.467 254.936Z" fill="#B2E3FF"/>
<circle cx="583.5" cy="211.5" r="4.5" fill="#B2E3FF"/>
<circle cx="1307.5" cy="172.5" r="4.5" fill="#B2E3FF"/>
<rect x="749.65" y="189.522" width="45.7199" height="45.7199" rx="10" transform="rotate(-35.9958 749.65 189.522)" fill="#23A6F0"/>
</svg>
