<svg width="1441" height="858" viewBox="0 0 1441 858" fill="none" xmlns="http://www.w3.org/2000/svg">
<path fill-rule="evenodd" clip-rule="evenodd" d="M1441.35 591.808C1337.12 592.32 1152.8 745.796 1152.8 858H1441.35V591.808Z" fill="#23A6F0"/>
<ellipse cx="718.5" cy="2.77147" rx="4.5" ry="2.12596" fill="#B2E3FF"/>
<path fill-rule="evenodd" clip-rule="evenodd" d="M0 502.956C38.1941 533.517 73.3658 536.393 95.377 536.393C209.037 536.393 284.677 400.048 445.963 400.048C587.237 400.048 624.457 490.771 634.662 505.863C644.867 520.955 684.488 616.316 711.502 637.066C738.517 657.82 834.279 713.228 876.589 787.92C887.435 807.07 897 841.694 897 858H0V502.956Z" fill="#B2E3FF"/>
<ellipse cx="1346.5" cy="100.022" rx="4.5" ry="2.90661" fill="#B2E3FF"/>
<ellipse cx="1375.5" cy="227.267" rx="4.5" ry="2.90661" fill="#B2E3FF"/>
<ellipse cx="1215.5" cy="19.9288" rx="4.5" ry="2.90661" fill="#B2E3FF"/>
<path d="M0 256.01C39.0756 297.767 141.084 379.293 236.51 371.339C355.794 361.397 437.25 328.803 539.518 359.409C603.18 378.461 597.103 437.621 654.688 480.704C712.274 523.786 963.18 419.062 963.18 419.062C963.18 419.062 1140.05 342.838 1157.19 419.062C1174.33 495.285 1103.72 586.091 1135.94 604.65C1161.71 619.497 1350.05 551.625 1441 515.833" stroke="#23A6F0"/>
</svg>
