<svg width="40" height="40" viewBox="0 0 40 40" fill="none" xmlns="http://www.w3.org/2000/svg">
<path d="M37.5 3.74121L27.4912 3.74125V1.25C27.4912 0.559375 26.9319 0 26.2412 0C25.5506 0 24.9912 0.559375 24.9912 1.25V3.74063H14.9913V1.25C14.9913 0.559375 14.4319 0 13.7413 0C13.0506 0 12.4913 0.559375 12.4913 1.25V3.74063H2.5C1.11937 3.74063 0 4.86 0 6.24063V37.4906C0 38.8712 1.11937 39.9906 2.5 39.9906H37.5C38.8806 39.9906 40 38.8712 40 37.4906V6.24063C40 4.86059 38.8806 3.74121 37.5 3.74121ZM37.5 37.4906H2.5V6.24063H12.4913V7.5C12.4913 8.19059 13.0506 8.75 13.7413 8.75C14.4319 8.75 14.9913 8.19059 14.9913 7.5V6.24125H24.9912V7.50063C24.9912 8.19125 25.5506 8.75063 26.2412 8.75063C26.9319 8.75063 27.4912 8.19125 27.4912 7.50063V6.24125H37.5V37.4906ZM28.75 19.9912H31.25C31.94 19.9912 32.5 19.4312 32.5 18.7412V16.2412C32.5 15.5512 31.94 14.9912 31.25 14.9912H28.75C28.06 14.9912 27.5 15.5512 27.5 16.2412V18.7412C27.5 19.4312 28.06 19.9912 28.75 19.9912ZM28.75 29.9906H31.25C31.94 29.9906 32.5 29.4312 32.5 28.7406V26.2406C32.5 25.5506 31.94 24.9906 31.25 24.9906H28.75C28.06 24.9906 27.5 25.5506 27.5 26.2406V28.7406C27.5 29.4318 28.06 29.9906 28.75 29.9906ZM21.25 24.9906H18.75C18.06 24.9906 17.5 25.5506 17.5 26.2406V28.7406C17.5 29.4312 18.06 29.9906 18.75 29.9906H21.25C21.94 29.9906 22.5 29.4312 22.5 28.7406V26.2406C22.5 25.5512 21.94 24.9906 21.25 24.9906ZM21.25 14.9912H18.75C18.06 14.9912 17.5 15.5512 17.5 16.2412V18.7412C17.5 19.4312 18.06 19.9912 18.75 19.9912H21.25C21.94 19.9912 22.5 19.4312 22.5 18.7412V16.2412C22.5 15.5506 21.94 14.9912 21.25 14.9912ZM11.25 14.9912H8.75C8.06 14.9912 7.5 15.5512 7.5 16.2412V18.7412C7.5 19.4312 8.06 19.9912 8.75 19.9912H11.25C11.94 19.9912 12.5 19.4312 12.5 18.7412V16.2412C12.5 15.5506 11.94 14.9912 11.25 14.9912ZM11.25 24.9906H8.75C8.06 24.9906 7.5 25.5506 7.5 26.2406V28.7406C7.5 29.4312 8.06 29.9906 8.75 29.9906H11.25C11.94 29.9906 12.5 29.4312 12.5 28.7406V26.2406C12.5 25.5512 11.94 24.9906 11.25 24.9906Z" fill="#F8F8F8"/>
</svg>
