<svg width="15" height="23" viewBox="0 0 15 23" fill="none" xmlns="http://www.w3.org/2000/svg">
<path fill-rule="evenodd" clip-rule="evenodd" d="M2.21991 21.2823C2.07903 21.1415 2 20.9503 2.00026 20.7511C2.00052 20.5518 2.08005 20.3609 2.22129 20.2203L10.7029 11.7624L2.24342 3.28236C1.95058 2.98875 1.95115 2.51334 2.24472 2.22045C2.53827 1.92755 3.01368 1.92805 3.30662 2.22156L12.295 11.2335C12.4359 11.3744 12.515 11.5655 12.5147 11.7648C12.5144 11.964 12.4349 12.155 12.2937 12.2955L3.28191 21.2837C3.14102 21.4246 2.94986 21.5036 2.75062 21.5034C2.55138 21.5031 2.36043 21.4236 2.21991 21.2823Z" fill="white" stroke="white" stroke-width="3"/>
</svg>
